<svg xmlns="http://www.w3.org/2000/svg" viewBox="0 0 300 100">
  <!-- Fond bleu foncu00e9 -->
  <path d="M 50,20 C 40,25 30,35 25,50 C 20,65 25,80 40,90 C 55,100 75,95 90,85 L 110,75 L 130,65 C 140,60 150,55 160,50 C 170,45 180,40 190,35 C 200,30 210,25 220,20 C 230,15 240,10 245,5 C 250,0 245,-5 235,-10 C 225,-15 215,-20 205,-20 C 195,-20 185,-15 175,-10 C 165,-5 155,0 145,5 C 135,10 125,15 115,20 C 105,25 95,30 85,35 C 75,40 65,45 55,50 C 45,55 35,60 30,65 C 25,70 25,75 30,80 C 35,85 45,90 55,95 C 65,100 75,105 85,105 C 95,105 105,100 115,95 C 125,90 135,85 145,80 C 155,75 165,70 175,65 C 185,60 195,55 205,50 C 215,45 225,40 235,35 C 245,30 255,25 260,20 C 265,15 265,10 260,5 C 255,0 245,-5 235,-10 C 225,-15 215,-20 205,-20 C 195,-20 185,-15 175,-10 C 165,-5 155,0 145,5 C 135,10 125,15 115,20 C 105,25 95,30 85,35 C 75,40 65,45 55,50 C 45,55 35,60 30,65 C 25,70 25,75 30,80 C 35,85 45,90 55,95 C 65,100 75,105 85,105 C 95,105 105,100 115,95" fill="#0056a6"/>
  
  <!-- Vague bleue -->
  <path d="M 25,60 C 35,55 45,50 55,45 C 65,40 75,35 85,30 C 95,25 105,20 115,20 C 125,20 135,25 145,30 C 155,35 165,40 175,45 C 185,50 195,55 205,60" fill="none" stroke="#0099ff" stroke-width="8" />
  
  <!-- Vague verte -->
  <path d="M 40,75 C 50,70 60,65 70,60 C 80,55 90,50 100,50 C 110,50 120,55 130,60 C 140,65 150,70 160,75" fill="none" stroke="#7ab51d" stroke-width="4" />
  
  <!-- Maison blanche -->
  <path d="M 110,45 L 125,30 L 140,45 L 140,60 L 110,60 Z" fill="white" />
  
  <!-- Texte 72 -->
  <text x="125" y="55" font-family="Arial" font-weight="bold" font-size="20" fill="white">72</text>
</svg>
