<svg xmlns="http://www.w3.org/2000/svg" viewBox="0 0 500 250">
  <!-- Fond bleu foncé -->
  <path d="M 100,50 C 80,60 60,80 50,120 C 40,160 50,200 80,220 C 110,240 150,230 180,210 L 220,190 L 260,170 C 280,160 300,150 320,140 C 340,130 360,120 380,110 C 400,100 420,90 440,80 C 460,70 480,60 490,50 C 500,40 490,30 470,20 C 450,10 430,0 410,0 C 390,0 370,10 350,20 C 330,30 310,40 290,50 C 270,60 250,70 230,80 C 210,90 190,100 170,110 C 150,120 130,130 110,140 C 90,150 70,160 60,170 C 50,180 50,190 60,200 C 70,210 90,220 110,230 C 130,240 150,250 170,250 C 190,250 210,240 230,230 C 250,220 270,210 290,200 C 310,190 330,180 350,170 C 370,160 390,150 410,140 C 430,130 450,120 470,110 C 490,100 510,90 520,80 C 530,70 530,60 520,50 C 510,40 490,30 470,20 C 450,10 430,0 410,0 C 390,0 370,10 350,20 C 330,30 310,40 290,50 C 270,60 250,70 230,80 C 210,90 190,100 170,110 C 150,120 130,130 110,140 C 90,150 70,160 60,170 C 50,180 50,190 60,200 C 70,210 90,220 110,230 C 130,240 150,250 170,250 C 190,250 210,240 230,230" fill="#0056a6"/>
  
  <!-- Éclaboussures bleu clair -->
  <circle cx="420" cy="50" r="5" fill="#0099ff" />
  <circle cx="430" cy="40" r="3" fill="#0099ff" />
  <circle cx="440" cy="45" r="4" fill="#0099ff" />
  <circle cx="450" cy="55" r="6" fill="#0099ff" />
  <circle cx="460" cy="60" r="4" fill="#0099ff" />
  <circle cx="470" cy="50" r="5" fill="#0099ff" />
  <circle cx="480" cy="45" r="3" fill="#0099ff" />
  <circle cx="490" cy="55" r="4" fill="#0099ff" />
  
  <!-- Vague bleue -->
  <path d="M 50,150 C 70,140 90,130 110,120 C 130,110 150,100 170,90 C 190,80 210,70 230,70 C 250,70 270,80 290,90 C 310,100 330,110 350,120 C 370,130 390,140 410,150" fill="none" stroke="#0099ff" stroke-width="15" />
  
  <!-- Vague verte -->
  <path d="M 80,180 C 100,170 120,160 140,150 C 160,140 180,130 200,130 C 220,130 240,140 260,150 C 280,160 300,170 320,180" fill="none" stroke="#7ab51d" stroke-width="8" />
  
  <!-- Maison blanche -->
  <path d="M 220,120 L 250,90 L 280,120 L 280,150 L 220,150 Z" fill="white" />
  
  <!-- Texte SPEEDCLEAN -->
  <text x="80" y="200" font-family="Arial" font-weight="bold" font-size="40" fill="white">SPEEDCLEAN</text>
  
  <!-- Texte 72 -->
  <text x="270" y="150" font-family="Arial" font-weight="bold" font-size="50" fill="white">72</text>
</svg>
